<svg xmlns="http://www.w3.org/2000/svg" viewBox="0 0 235.94 235.94"><defs><style>.cls-1{isolation:isolate;}.cls-2{fill:#4f152a;}.cls-3{fill:#f9ed32;}.cls-4,.cls-6{opacity:0.5;}.cls-4{mix-blend-mode:multiply;}.cls-5{fill:#fbb040;}.cls-6{mix-blend-mode:screen;}.cls-7{fill:#f8f293;}</style></defs><title>bee 1</title><g class="cls-1"><g id="Layer_2" data-name="Layer 2"><g id="Layer_1-2" data-name="Layer 1"><g id="_Group_" data-name="&lt;Group&gt;"><path id="_Path_" data-name="&lt;Path&gt;" class="cls-2" d="M9.42,128.05a13.51,13.51,0,0,1-8.16-2.5,3.06,3.06,0,1,1,3.61-5c7.73,5.64,27.49-8.45,34-15,5.49-5.49,34.91-4.39,47.3-3.67a3.07,3.07,0,1,1-.36,6.12c-18.31-1.07-39.8-.56-42.61,1.89C43,110.15,24.06,128.05,9.42,128.05Z"/></g><g id="_Group_2" data-name="&lt;Group&gt;"><path id="_Path_2" data-name="&lt;Path&gt;" class="cls-2" d="M80.48,66.75c-7.15,0-14-1.65-18.36-6.26a3.06,3.06,0,0,1,4.45-4.21c8.11,8.58,32.44,2.45,37.55-1.69,6.95-5.62,25.13,2.7,30.54,5.38a3.07,3.07,0,1,1-2.73,5.49c-9.24-4.58-21.34-8.21-24-6.11C104,62.55,91.88,66.75,80.48,66.75Z"/></g><g id="_Group_3" data-name="&lt;Group&gt;"><path id="_Path_3" data-name="&lt;Path&gt;" class="cls-2" d="M141.22,59a3.06,3.06,0,0,1-2.48-1.25c-3.15-4.31-13.39-18.85-12.75-25.2.24-2.41,1.9-5.11,4-8.52,4.85-7.88,8.2-14.27,3.46-18.74a3.06,3.06,0,1,1,4.2-4.45c8.75,8.24,2,19.17-2.45,26.4-1.35,2.19-3,4.91-3.13,5.92-.27,2.7,5.78,13,11.61,21a3.07,3.07,0,0,1-.67,4.29A3,3,0,0,1,141.22,59Z"/></g><g id="_Group_4" data-name="&lt;Group&gt;"><path id="_Path_4" data-name="&lt;Path&gt;" class="cls-2" d="M183,41.54l-4-4.65-.11.1c1.68-1.77,2.48-9.91-13.69-26.09a3.06,3.06,0,1,1,4.33-4.33c11.1,11.1,16.59,20.51,16.31,28C185.64,39,183.41,41.16,183,41.54Z"/></g><g id="_Group_5" data-name="&lt;Group&gt;"><path id="_Path_5" data-name="&lt;Path&gt;" class="cls-3" d="M129.32,106.62s-22.56-23.41-50.64,4.68-43.41,63-30.22,76.18,48.09-2.13,76.18-30.22S129.32,106.62,129.32,106.62Z"/></g><g id="_Group_6" data-name="&lt;Group&gt;" class="cls-4"><path id="_Path_6" data-name="&lt;Path&gt;" class="cls-5" d="M129.32,106.62a26.62,26.62,0,0,0-3.25-2.71c5.23,7.2,14.38,25.64-7.39,47.4-25.92,25.93-57.64,41-72.74,32.74a14.88,14.88,0,0,0,2.52,3.43c13.19,13.19,48.09-2.13,76.18-30.22S129.32,106.62,129.32,106.62Z"/></g><g id="_Group_7" data-name="&lt;Group&gt;" class="cls-6"><path id="_Path_7" data-name="&lt;Path&gt;" class="cls-7" d="M129.32,106.62a26.91,26.91,0,0,1,2.71,3.24c-7.21-5.22-25.64-14.37-47.4,7.39C58.7,143.18,43.67,174.9,51.89,190a14.66,14.66,0,0,1-3.43-2.52c-13.19-13.19,2.13-48.09,30.22-76.18S129.32,106.62,129.32,106.62Z"/></g><g id="_Group_8" data-name="&lt;Group&gt;"><path id="_Path_8" data-name="&lt;Path&gt;" class="cls-3" d="M174.43,61.51s-21.28-18.73-38.73-1.28c-11,11-20.78,25.18-22.93,37.8a34,34,0,0,1,16.55,8.59,34,34,0,0,1,8.59,16.55c12.62-2.15,26.81-12,37.8-22.93C193.15,82.79,174.43,61.51,174.43,61.51Z"/></g><g class="cls-4"><g id="_Group_9" data-name="&lt;Group&gt;"><path id="_Path_9" data-name="&lt;Path&gt;" class="cls-5" d="M174.43,61.51A33.85,33.85,0,0,0,171,59c4.44,6.72,11.93,22.1-1.27,35.29-9.89,9.9-22.38,18.81-34,22a33,33,0,0,1,2.17,6.87c12.62-2.15,26.81-12,37.8-22.93C193.15,82.79,174.43,61.51,174.43,61.51Z"/></g></g><g class="cls-6"><g id="_Group_10" data-name="&lt;Group&gt;"><path id="_Path_10" data-name="&lt;Path&gt;" class="cls-7" d="M174.47,61.55A35.4,35.4,0,0,1,177,65c-6.71-4.43-22.09-11.92-35.29,1.27-9.89,9.9-18.8,22.39-22,34a32.69,32.69,0,0,0-6.86-2.17c2.14-12.62,11.94-26.81,22.93-37.8C153.19,42.82,174.47,61.55,174.47,61.55Z"/></g></g><g id="_Group_11" data-name="&lt;Group&gt;"><path id="_Path_11" data-name="&lt;Path&gt;" class="cls-3" d="M190.18,45.76c-21.5-21.49-36.57,7.06-36.57,7.06h0c11.42.44,20.81,8.69,20.81,8.69s8.25,9.39,8.69,20.81h0S211.67,67.25,190.18,45.76Z"/></g><g class="cls-4"><g id="_Group_12" data-name="&lt;Group&gt;"><path id="_Path_12" data-name="&lt;Path&gt;" class="cls-5" d="M190.18,45.76c-.88-.88-1.75-1.64-2.6-2.36,12.74,15.23.79,26.87-5.77,31.62a28.76,28.76,0,0,1,1.31,7.3h0S211.67,67.25,190.18,45.76Z"/></g></g><g id="_Group_13" data-name="&lt;Group&gt;"><path id="_Path_13" data-name="&lt;Path&gt;" class="cls-7" d="M190.18,45.76c.88.88,1.64,1.75,2.36,2.6-15.23-12.74-26.87-.79-31.62,5.77a28.76,28.76,0,0,0-7.3-1.31h0S168.69,24.27,190.18,45.76Z"/></g><g id="_Group_14" data-name="&lt;Group&gt;"><path id="_Path_14" data-name="&lt;Path&gt;" class="cls-3" d="M64.8,127a141,141,0,0,0-10.73,15.89,90.8,90.8,0,0,0,16.66,22.29A90.8,90.8,0,0,0,93,181.87a141,141,0,0,0,15.89-10.73c-11,0-27.68-16.43-27.68-16.43S64.8,138.06,64.8,127Z"/></g><g id="_Group_15" data-name="&lt;Group&gt;"><path id="_Path_15" data-name="&lt;Path&gt;" class="cls-3" d="M134.73,143.73a67.76,67.76,0,0,1-42.52-42.52A53,53,0,0,0,78.68,111.3l-.61.62a73.1,73.1,0,0,0,19.68,26.27A73,73,0,0,0,124,157.87l.62-.61A53,53,0,0,0,134.73,143.73Z"/></g><g id="_Group_16" data-name="&lt;Group&gt;"><path id="_Path_16" data-name="&lt;Path&gt;" class="cls-2" d="M64.8,127a141,141,0,0,0-10.73,15.89,90.8,90.8,0,0,0,16.66,22.29A90.8,90.8,0,0,0,93,181.87a141,141,0,0,0,15.89-10.73c-11,0-27.68-16.43-27.68-16.43S64.8,138.06,64.8,127Z"/></g><g id="_Group_17" data-name="&lt;Group&gt;"><path id="_Path_17" data-name="&lt;Path&gt;" class="cls-2" d="M134.73,143.73a67.76,67.76,0,0,1-42.52-42.52A53,53,0,0,0,78.68,111.3l-.61.62a73.1,73.1,0,0,0,19.68,26.27A73,73,0,0,0,124,157.87l.62-.61A53,53,0,0,0,134.73,143.73Z"/></g><g id="_Group_18" data-name="&lt;Group&gt;"><path id="_Path_18" data-name="&lt;Path&gt;" class="cls-3" d="M164.78,71.16h0a44.86,44.86,0,0,0-29.27-10.73,102,102,0,0,0-17.1,22.39,27.12,27.12,0,0,1,34.71,34.71,102.21,102.21,0,0,0,22.39-17.1A44.86,44.86,0,0,0,164.78,71.16Z"/></g><g id="_Group_19" data-name="&lt;Group&gt;"><path id="_Path_19" data-name="&lt;Path&gt;" class="cls-2" d="M164.78,71.16h0a44.86,44.86,0,0,0-29.27-10.73,102,102,0,0,0-17.1,22.39,27.12,27.12,0,0,1,34.71,34.71,102.21,102.21,0,0,0,22.39-17.1A44.86,44.86,0,0,0,164.78,71.16Z"/></g><g id="_Group_20" data-name="&lt;Group&gt;"><path id="_Compound_Path_" data-name="&lt;Compound Path&gt;" class="cls-2" d="M61.85,195.39c-6.23,0-11.59-1.77-15.56-5.74-7.19-7.2-7.56-19.92-1-35.84,6-14.67,17.12-30.53,31.26-44.67,9.87-9.87,20.23-14.83,30.84-14.73,14.1.13,23.36,9.26,24.14,10s9.9,10,10,24.14c.09,10.6-4.86,21-14.73,30.84C106.46,179.78,80.32,195.39,61.85,195.39ZM107,100.54c-8.8,0-17.62,4.35-26.2,12.93-13.38,13.38-24.29,28.93-29.92,42.67-5.52,13.48-5.63,23.84-.29,29.17,11.28,11.29,44.18-2.55,71.84-30.21,8.66-8.66,13-17.56,12.93-26.45-.11-11.89-8.13-19.75-8.21-19.82l-.07-.08c-.11-.11-8.1-8.14-19.91-8.21Z"/></g><g id="_Group_21" data-name="&lt;Group&gt;"><path id="_Compound_Path_2" data-name="&lt;Compound Path&gt;" class="cls-2" d="M137.9,126.23a3.06,3.06,0,0,1-3-2.48,30.77,30.77,0,0,0-7.71-14.92,31.09,31.09,0,0,0-15-7.79,3.06,3.06,0,0,1-2.44-3.52c2-12,10.71-26.38,23.79-39.45,15.41-15.42,34.81-6,42.92,1.14a3.44,3.44,0,0,1,.27.27c7.14,8.11,16.55,27.51,1.14,42.92-13.07,13.08-27.45,21.75-39.45,23.79A3,3,0,0,1,137.9,126.23ZM116.39,95.76a37,37,0,0,1,15.14,8.73,37,37,0,0,1,8.65,15.05c10.13-2.64,22.37-10.48,33.36-21.47,14.69-14.69.39-32.43-1.28-34.39-1.94-1.64-19.75-15.92-34.39-1.28C126.88,73.39,119,85.63,116.39,95.76Z"/></g><g id="_Group_22" data-name="&lt;Group&gt;"><path id="_Compound_Path_3" data-name="&lt;Compound Path&gt;" class="cls-2" d="M183.12,85.39a3.06,3.06,0,0,1-2.39-1.15,3.12,3.12,0,0,1-.68-1.8c-.35-9.41-6.79-17.54-7.79-18.76-1.21-1-9.35-7.44-18.76-7.8a3,3,0,0,1-2.05-.89,3.07,3.07,0,0,1-.55-3.6c.32-.6,7.84-14.59,20.44-16.49,7.09-1.07,14.16,1.85,21,8.69h0c6.85,6.85,9.77,13.92,8.7,21-1.9,12.6-15.89,20.12-16.49,20.44A3,3,0,0,1,183.12,85.39Zm-24.28-35a42.88,42.88,0,0,1,17.61,8.8,1.85,1.85,0,0,1,.28.28,42.8,42.8,0,0,1,8.8,17.6c3.6-2.71,8.56-7.44,9.45-13.43.76-5-1.59-10.35-7-15.73s-10.69-7.74-15.76-7C166.25,41.86,161.53,46.81,158.84,50.41Z"/></g><g id="_Group_23" data-name="&lt;Group&gt;"><path id="_Path_20" data-name="&lt;Path&gt;" class="cls-2" d="M112.87,235.94a3.07,3.07,0,0,1-2.48-1.26c-10.47-14.35,15.36-41.72,15.63-42,2.44-2.8,3-24.29,1.88-42.6a3.07,3.07,0,0,1,6.12-.36c.72,12.39,1.81,41.81-3.67,47.29-6.56,6.56-20.65,26.32-15,34a3.07,3.07,0,0,1-2.47,4.87Z"/></g><g id="_Group_24" data-name="&lt;Group&gt;"><path id="_Path_21" data-name="&lt;Path&gt;" class="cls-2" d="M177.55,174.66a3,3,0,0,1-2.1-.84c-11.93-11.27-4.07-39.43,1.14-45.86,2.1-2.61-1.53-14.71-6.12-23.95a3.07,3.07,0,1,1,5.49-2.73c2.69,5.41,11,23.59,5.39,30.53-4.14,5.12-10.27,29.45-1.7,37.55a3.08,3.08,0,0,1,.13,4.34A3.11,3.11,0,0,1,177.55,174.66Z"/></g><g id="_Group_25" data-name="&lt;Group&gt;"><path id="_Path_22" data-name="&lt;Path&gt;" class="cls-2" d="M202.79,110c-6.61,0-20.42-9.73-24.6-12.78a3.07,3.07,0,0,1,3.62-5c8,5.82,18.27,11.89,21,11.6,1-.1,3.73-1.77,5.92-3.12,7.23-4.46,18.15-11.2,26.4-2.45a3.06,3.06,0,1,1-4.45,4.2c-4.47-4.73-10.86-1.4-18.74,3.46-3.41,2.11-6.11,3.77-8.52,4A5.74,5.74,0,0,1,202.79,110Z"/></g><g id="_Group_26" data-name="&lt;Group&gt;"><path id="_Path_23" data-name="&lt;Path&gt;" class="cls-2" d="M227.2,71.67a3,3,0,0,1-2.16-.9c-12.92-12.91-20.22-14.66-23.4-14.51a4.7,4.7,0,0,0-2.59.71,3.06,3.06,0,0,1-4.65-4c.38-.45,2.51-2.68,7-2.85,7.44-.31,16.85,5.2,28,16.31a3.07,3.07,0,0,1-2.17,5.23Z"/></g></g></g></g></svg>