<svg xmlns="http://www.w3.org/2000/svg" viewBox="0 0 125.13 174.21"><defs><style>.cls-1{fill:#35203b;}.cls-2{fill:#d04b2f;}</style></defs><title>ladybug</title><g id="Layer_2" data-name="Layer 2"><g id="Layer_1-2" data-name="Layer 1"><path class="cls-1" d="M24.84,58.56l-1.19,9.72h77.83l-1.19-9.72A27.67,27.67,0,0,0,72.82,34.24H52.31A27.67,27.67,0,0,0,24.84,58.56Z"/><path class="cls-1" d="M41.63,31.58l-.6,10H84.1l-.6-10A15.54,15.54,0,0,0,83,28.34,15.31,15.31,0,0,0,68.24,17.22H56.89A15.31,15.31,0,0,0,42.16,28.34,15.54,15.54,0,0,0,41.63,31.58Z"/><path class="cls-1" d="M81,19.62a4.89,4.89,0,1,0,4.89,4.89A4.89,4.89,0,0,0,81,19.62Z"/><path class="cls-1" d="M44.09,19.62A4.89,4.89,0,1,0,49,24.51,4.89,4.89,0,0,0,44.09,19.62Z"/><path class="cls-1" d="M62.56,46.49c-29.74,0-53.85,30.92-53.85,69.06s24.11,58.66,53.85,58.66,53.86-20.52,53.86-58.66S92.31,46.49,62.56,46.49Z"/><path class="cls-2" d="M62.56,45.28c0,90.42,4.51,125.35,4.51,125.35,26,10.82,50.53-24,57.27-65.28C132.31,56.6,77.43,31.35,62.56,45.28Z"/><ellipse class="cls-1" cx="81.59" cy="109.26" rx="10.35" ry="8.18" transform="translate(-41.18 49.91) rotate(-27.45)"/><path class="cls-1" d="M89.23,143.72c-6.2.2-11.11,3.77-11,8s5.27,7.44,11.47,7.24,8.59-3.91,8.45-8.11S95.43,143.51,89.23,143.72Z"/><path class="cls-1" d="M110.29,105.33c0,8.81,3.77,16.42,9.23,20.07a137.42,137.42,0,0,0,4.82-20.05A55.4,55.4,0,0,0,124.21,86C116.32,87.21,110.29,94.18,110.29,105.33Z"/><path class="cls-2" d="M62.56,45.28c0,90.42-4.5,125.35-4.5,125.35-26,10.82-50.53-24-57.27-65.28C-7.18,56.6,47.69,31.35,62.56,45.28Z"/><ellipse class="cls-1" cx="43.54" cy="109.26" rx="8.18" ry="10.35" transform="translate(-73.49 97.53) rotate(-62.55)"/><path class="cls-1" d="M35.9,143.72c6.2.2,11.11,3.77,11,8s-5.27,7.44-11.47,7.24S26.81,155,27,150.82,29.7,143.51,35.9,143.72Z"/><path class="cls-1" d="M14.84,105.33c0,8.81-3.77,16.42-9.23,20.07A137.42,137.42,0,0,1,.79,105.35,55.4,55.4,0,0,1,.92,86C8.81,87.21,14.84,94.18,14.84,105.33Z"/><ellipse class="cls-1" cx="62.56" cy="58.6" rx="19.02" ry="10.12"/><path class="cls-1" d="M82.69.15C82-1.2,70.53,6.74,69.58,8c-1.52,2-1.21,4.93-1.13,7.26a66.93,66.93,0,0,0,1,9.77c.37,1.95,1.52,2.34,1.32.07-.44-5.15-.59-10,.59-14.91a.18.18,0,0,1-.06.09C72.68,9.15,83.52,1.69,82.69.15Z"/><path class="cls-1" d="M42.44.15C43.16-1.2,54.6,6.74,55.55,8c1.52,2,1.21,4.93,1.13,7.26a66.93,66.93,0,0,1-1,9.77c-.37,1.95-1.52,2.34-1.32.07.44-5.15.59-10-.59-14.91a.18.18,0,0,0,.06.09C52.45,9.15,41.61,1.69,42.44.15Z"/></g></g></svg>