<svg xmlns="http://www.w3.org/2000/svg" viewBox="0 0 231.72 227.09"><defs><style>.cls-1{fill:#08adb8;fill-rule:evenodd;}</style></defs><title>firework 8</title><g id="Layer_2" data-name="Layer 2"><g id="Layer_1-2" data-name="Layer 1"><path class="cls-1" d="M114.46,55.48c.35-4.89,6.63-6.45,7.16,0C122,58.79,118,79.73,118,79.73s-3.85-19.37-3.5-24.25Zm42.41,14.65c-3.67,3.14-14.66,19.72-14.66,19.72s17.62-12,19.72-14.65c4.18-5.07-1.23-8.2-5.06-5.07Zm19.71,40.31c-4.88-.35-24.25,3.66-24.25,3.66s20.94,3.84,24.25,3.49c6.46-.52,4.89-6.63,0-7.15ZM161.93,153c-3.15-3.84-19.72-14.66-19.72-14.66s12,17.45,14.66,19.54c5.06,4.37,8.2-1.22,5.06-4.88Zm-40.31,19.54C122,167.66,118,148.3,118,148.3s-3.85,20.93-3.5,24.25c.53,6.63,6.63,5.06,7.16,0ZM79,157.89c3.84-3.14,14.83-19.71,14.83-19.71s-17.62,12.21-19.71,14.65c-4.37,5.06,1.22,8.38,4.88,5.06ZM59.5,117.59c4.89.35,24.26-3.49,24.26-3.49s-21-3.84-24.26-3.66c-6.63.52-5.06,6.8,0,7.15ZM74.16,75.2c3.14,3.66,19.71,14.65,19.71,14.65S81.66,72.23,79.22,70.13c-5.06-4.18-8.38,1.23-5.06,5.07Zm62.29-51.3c-2.62,7.33-4.54,38.21-4.54,38.21s14.31-30,15.18-35.24c1.93-10.12-8-10.3-10.64-3Zm58.28,39.43c-7,3.31-30.19,23.9-30.19,23.9S196,76.07,200.31,72.93c8.38-5.76,1.4-12.91-5.58-9.6Zm13.44,69.09c-7.33-2.62-38.22-4.54-38.22-4.54s30,14.31,35.25,15.36c10.12,1.74,10.3-8.2,3-10.82Zm-39.44,58.27c-3.31-7-23.9-30.18-23.9-30.18s11.17,31.4,14.3,35.76c5.76,8.38,12.91,1.58,9.6-5.58Zm-69.1,13.44c2.62-7.33,4.54-38.21,4.54-38.21S89.86,196.1,88.81,201.16c-1.74,10.12,8.21,10.29,10.82,3ZM41.35,164.7c7-3.32,30.19-23.91,30.19-23.91S40.13,152,35.77,155.1C27.39,161,34.2,168,41.35,164.7ZM27.92,95.61c7.32,2.61,38.21,4.53,38.21,4.53S35.94,85.84,30.89,85c-10.13-1.93-10.3,8-3,10.64ZM67.35,37.33c3.32,7,23.91,30.19,23.91,30.19S80.09,36.11,77,31.75c-5.76-8.37-12.91-1.39-9.6,5.58ZM98.76,71.71c1,3.66,9.59,16.92,9.59,16.92s-3.13-16.58-4.18-19c-2.27-4.71-6.46-1.74-5.41,2.1Zm35.59-1.23c-1.91,3.5-5.23,18.67-5.23,18.67s9.6-13.78,10.47-16.4c1.75-4.88-3.31-5.75-5.24-2.27Zm26,24.43c-3.66,1-16.92,9.42-16.92,9.42s16.57-3.14,19-4.19c4.71-2.26,1.74-6.45-2.1-5.23Zm1.23,35.59c-3.49-1.92-18.67-5.41-18.67-5.41s13.78,9.6,16.4,10.47c4.88,1.75,5.76-3.14,2.27-5.06Zm-24.43,26c-1.05-3.84-9.43-17.1-9.43-17.1s3.15,16.57,4.19,19c2.27,4.71,6.46,1.74,5.24-1.92Zm-35.6,1c1.92-3.31,5.41-18.66,5.41-18.66s-9.59,14-10.47,16.39c-1.75,4.89,3.32,5.76,5.06,2.27Zm-26-24.25c3.84-1,17.1-9.59,17.1-9.59s-16.58,3.14-19,4.36c-4.71,2.09-1.74,6.28,1.92,5.23Zm-1-35.59c3.32,1.92,18.68,5.23,18.68,5.23s-14-9.59-16.4-10.46C71.89,90.72,71,95.78,74.5,97.7ZM116,25.12c-.36,2.8,1.92,14.13,1.92,14.13s2.26-12.21,2.09-14.13c-.35-3.84-3.84-3-4,0ZM93,28.61c.52,3,5.59,13.26,5.59,13.26S97.71,29.48,97,27.56c-1.22-3.48-4.54-1.74-4,1.05Zm86.37,21.11C177.28,51.47,171,61.24,171,61.24s10.12-7.15,11.34-8.55c2.44-3-.69-4.88-3-3ZM160.7,35.94c-1.57,2.44-5.23,13.26-5.23,13.26s8-9.42,8.9-11.17c1.57-3.48-2.09-4.36-3.67-2.09ZM207,111.66c-2.8-.18-14.14,2.27-14.14,2.27S205,116,207,115.84c3.83-.34,2.79-3.83,0-4.18ZM203.28,88.8c-2.79.53-13.09,5.76-13.09,5.76s12.39-1,14.14-1.75c3.66-1.39,1.91-4.53-1.05-4Zm-20.59,86.37c-1.92-2.27-11.52-8.55-11.52-8.55s7.16,10.11,8.55,11.51c3,2.44,4.89-.87,3-3Zm13.61-18.85c-2.45-1.74-13.26-5.23-13.26-5.23s9.42,8,11.17,8.72c3.49,1.75,4.53-1.92,2.09-3.49ZM120.74,202.9c.35-2.79-2.09-14.13-2.09-14.13s-2.26,12.21-1.92,14.13c.35,3.84,3.84,3,4,0Zm23-3.66c-.52-3-5.76-13.08-5.76-13.08s1,12.38,1.74,14.13c1.22,3.49,4.54,1.74,4-1ZM57.23,179c2.27-1.92,8.38-11.51,8.38-11.51s-10.13,7.15-11.35,8.72c-2.44,2.79.88,4.71,3,2.79Zm19,13.61c1.57-2.44,5.06-13.43,5.06-13.43s-7.85,9.59-8.72,11.34c-1.57,3.49,1.91,4.36,3.66,2.09ZM29.14,117.24c2.79.18,14.13-2.27,14.13-2.27s-12.22-2.09-14.13-1.91c-3.84.52-3,4,0,4.18ZM33,140.1c2.79-.53,13.09-5.76,13.09-5.76s-12.39,1.22-14.14,1.92c-3.66,1.22-1.75,4.53,1,3.84Zm22.5-89.33c1.93,2.27,11.35,8.72,11.35,8.72S60,49.2,58.63,47.81c-2.8-2.45-4.89.69-3.15,3ZM41.35,69.09c2.27,1.57,13.09,5.58,13.09,5.58s-9.25-8.37-11-9.25c-3.31-1.57-4.53,1.93-2.09,3.67ZM200.14,42.92c-4,3.14-15.71,20.06-15.71,20.06s18.5-12,20.77-14.65c4.54-5.06-1-8.55-5.06-5.41Zm26.34,77.64c-5-.53-25.29,3.31-25.29,3.31s21.63,4.36,25.13,4c6.8-.34,5.22-6.8.16-7.32Zm-35.41,74c-3.32-4-20.42-15.35-20.42-15.35S183,197.5,185.83,199.76c5.06,4.37,8.55-1.22,5.24-5.23Zm-77.13,28.09c.35-5.06-3.84-25.12-3.84-25.12s-3.84,21.63-3.49,25.12c.7,6.8,7,5.06,7.33,0ZM37.87,187.38C41.87,184.06,53,167,53,167S34.9,179.53,32.63,182.14c-4.36,5.24,1.39,8.55,5.24,5.24ZM9.59,106.6c5.07.7,25.31-3,25.31-3S13.26,99.1,9.77,99.27c-6.81.53-5.24,6.81-.18,7.33ZM46.76,31.93c3.31,4,20.07,15.7,20.07,15.7s-12-18.49-14.66-20.76c-5.06-4.54-8.55,1.05-5.41,5.06ZM26.52,68l3.84-7.32-4.71,7-1-8.37L25,67.69,19,61.76l5.23,6.46-8.37-1.4,8.2,2.27-7.51,3.84,7.86-3-4,7.33,4.71-7,1.22,8.37L26,70.31l5.76,5.93L26.7,69.79l8.2,1.39-8-2.27,7.5-3.66ZM104.87,8.72l4-7.33-4.71,7L103,0l.35,8.38L97.54,2.44,102.6,8.9,94.4,7.5l8,2.27-7.5,3.84,7.85-3L98.94,18l4.71-7,1,8.38L104.35,11l5.93,5.93L105,10.47l8.38,1.39-8.2-2.26,7.5-3.84Zm118.48,92.65,3.84-7.51-4.54,7-1.22-8.2.35,8.38-5.94-6.11,5.24,6.63-8.21-1.4,8,2.27-7.51,3.67,7.85-3-3.84,7.5,4.54-7,1.22,8.38-.35-8.55,5.94,6.1-5.24-6.63,8.2,1.4-8-2.27,7.51-3.66Zm-20.94,75.36,3.83-7.32-4.53,7L200.49,168l.35,8.38-5.93-5.94,5.23,6.46-8.2-1.4,8,2.27-7.5,3.84,7.85-3L196.47,186l4.54-7,1.22,8.38-.35-8.38,5.94,5.94-5.24-6.46,8.2,1.4-8-2.27,7.5-3.67ZM73.81,211.8l4-7.5-4.71,7-1.22-8.38.35,8.55-5.76-6.1L71.72,212l-8.38-1.4,8,2.27-7.51,3.66,7.86-3-3.85,7.5,4.72-7,1.22,8.2-.35-8.38L79.22,220,74,213.37l8.38,1.4-8.2-2.27,7.67-3.66ZM18.67,151.44l4-7.33-4.71,7-1.22-8.38.35,8.38-5.93-5.93,5.23,6.63-8.2-1.57,8,2.26-7.5,3.84,7.85-3-3.83,7.5,4.53-7,1.23,8.2-.35-8.37,5.93,6.1-5.23-6.63,8.19,1.4-8-2.27,7.5-3.67Zm113.07,62.11a2.68,2.68,0,0,0-2.62,2.61,2.54,2.54,0,0,0,2.62,2.45,2.39,2.39,0,0,0,2.44-2.45,2.53,2.53,0,0,0-2.44-2.61ZM215.5,154.4a2.58,2.58,0,0,0-2.63,2.62,2.54,2.54,0,0,0,2.63,2.44,2.38,2.38,0,0,0,2.44-2.44,2.44,2.44,0,0,0-2.44-2.62Zm1.56-81.47a2.57,2.57,0,0,0-2.61,2.61A2.43,2.43,0,0,0,217.06,78a2.39,2.39,0,0,0,2.45-2.45,2.54,2.54,0,0,0-2.45-2.61ZM169.26,30.7a2.39,2.39,0,0,0-2.45,2.45,2.44,2.44,0,0,0,2.45,2.62,2.47,2.47,0,0,0,2.61-2.62,2.43,2.43,0,0,0-2.61-2.45ZM134.7,8.38A2.53,2.53,0,0,0,132.26,11a2.38,2.38,0,0,0,2.44,2.44A2.53,2.53,0,0,0,137.32,11a2.68,2.68,0,0,0-2.62-2.61Zm-63,4.53a2.62,2.62,0,1,0,2.61,2.62,2.69,2.69,0,0,0-2.61-2.62ZM30.18,45.19a2.62,2.62,0,0,0,0,5.23,2.62,2.62,0,1,0,0-5.23Zm-17.62,79.2a2.62,2.62,0,0,0,0,5.24,2.62,2.62,0,1,0,0-5.24Zm37.69,71.54a2.53,2.53,0,0,0-2.62,2.44,2.62,2.62,0,0,0,5.24,0,2.53,2.53,0,0,0-2.62-2.44Zm100.16,15.52a1.19,1.19,0,0,0-1.22,1.22,1.35,1.35,0,0,0,1.22,1.4,1.51,1.51,0,0,0,1.4-1.4,1.36,1.36,0,0,0-1.4-1.22Zm-60.72,8.38a1.35,1.35,0,0,0-1.23,1.39,1.2,1.2,0,0,0,1.23,1.22,1.34,1.34,0,0,0,1.39-1.22,1.49,1.49,0,0,0-1.39-1.39Zm-48.34-10A1.35,1.35,0,0,0,40,211.11a1.37,1.37,0,0,0,1.39,1.39,1.24,1.24,0,0,0,1.22-1.39,1.2,1.2,0,0,0-1.22-1.23ZM19,168.36a1.36,1.36,0,0,0-1.23,1.4,1.23,1.23,0,0,0,2.45,0,1.35,1.35,0,0,0-1.22-1.4ZM1.39,117.76a1.23,1.23,0,1,0,0,2.45,1.23,1.23,0,0,0,0-2.45ZM17.45,82.35a1.2,1.2,0,0,0-1.23,1.22A1.36,1.36,0,0,0,17.45,85a1.51,1.51,0,0,0,1.4-1.4,1.35,1.35,0,0,0-1.4-1.22ZM45.89,41.7a1.22,1.22,0,0,0,0,2.44,1.23,1.23,0,1,0,0-2.44Zm40-23.91A1.2,1.2,0,0,0,84.63,19a1.35,1.35,0,0,0,1.22,1.39A1.49,1.49,0,0,0,87.24,19a1.35,1.35,0,0,0-1.39-1.23Zm38.39-7A1.34,1.34,0,0,0,123,12.21a1.19,1.19,0,0,0,1.22,1.22,1.35,1.35,0,0,0,1.39-1.22,1.49,1.49,0,0,0-1.39-1.39Zm33.15,10.12A1.34,1.34,0,0,0,156,22.16a1.35,1.35,0,0,0,1.39,1.22,1.22,1.22,0,0,0,0-2.44Zm19.19,23.72a1.25,1.25,0,0,0-1.22,1.4,1.22,1.22,0,1,0,2.44,0,1.25,1.25,0,0,0-1.22-1.4Zm-7,23.91a1.22,1.22,0,0,0,0,2.44,1.23,1.23,0,1,0,0-2.44Zm45.37-7a1.19,1.19,0,0,0-1.22,1.22,1.23,1.23,0,1,0,2.44,0A1.19,1.19,0,0,0,215,61.59ZM195.78,83a1.36,1.36,0,0,0-1.22,1.4,1.22,1.22,0,1,0,2.44,0,1.36,1.36,0,0,0-1.22-1.4Zm5.41,19.37a1.23,1.23,0,1,0,0,2.44,1.22,1.22,0,0,0,0-2.44ZM221.08,137a1.22,1.22,0,0,0,0,2.44,1.23,1.23,0,1,0,0-2.44Zm-12.22,26.86a1.2,1.2,0,0,0-1.22,1.23,1.23,1.23,0,1,0,2.44,0,1.2,1.2,0,0,0-1.22-1.23Zm-16.92,22.34a1.22,1.22,0,1,0,1.22,1.22,1.19,1.19,0,0,0-1.22-1.22Z"/></g></g></svg>