<svg xmlns="http://www.w3.org/2000/svg" viewBox="0 0 268.39 139.35"><defs><style>.cls-1{fill:#88a83e;}.cls-2{fill:#35203b;}.cls-3{fill:#d04b2f;}.cls-4{fill:#911a47;}.cls-5{fill:#ec8c28;}</style></defs><title>dragon fly</title><g id="Layer_2" data-name="Layer 2"><g id="Layer_1-2" data-name="Layer 1"><path class="cls-1" d="M142,31.2c1.46.59,3.44.89,5.07,2.47s4.39,3.69,4.82,4.38a5.7,5.7,0,0,1,.52,2.07s3.44-8.27,5.85-9.36h1s2.49-4.92,0-8.17c-1.21-1.39.17-1.08.69,0s1.78,3.21.42,8.3l.27,1.15a49.26,49.26,0,0,0-6.54,8.87c-.54,1.12-2.62.91-2.62.91a2.54,2.54,0,0,1-1.77.5c-.77-.23-12-5.65-12.58-7S142,31.2,142,31.2Z"/><path class="cls-1" d="M126.21,31.2c-1.46.59-3.44.89-5.07,2.47s-4.39,3.69-4.82,4.38a5.61,5.61,0,0,0-.51,2.07s-3.44-8.27-5.85-9.36h-1s-2.49-4.92,0-8.17c1.21-1.39-.17-1.08-.68,0s-1.79,3.21-.42,8.3L107.55,32a49.26,49.26,0,0,1,6.54,8.87c.54,1.12,2.62.91,2.62.91a2.53,2.53,0,0,0,1.76.5c.78-.23,12-5.65,12.58-7S126.21,31.2,126.21,31.2Z"/><path class="cls-1" d="M151.62,12.83c-.57-1.26-.92-1.72-2.42-1.61-.68-2.29,2.53-9.17,2.41-9.75S149.2-.36,149,.1s1.15,1.95,1.15,1.95-3.67,6.42-2.06,9.86c2.52,3,3.55,9.52,3.55,9.52a2.27,2.27,0,0,0-1.83,0c-.81.46-8,6.1-9.06,7.23l1,2c3.41.29,10.05-6.13,10.69-6.48s.68-1.14.57-2.52C153.73,19.94,152.19,14.09,151.62,12.83Z"/><path class="cls-1" d="M116.6,12.83c.57-1.26.92-1.72,2.41-1.61.69-2.29-2.52-9.17-2.41-9.75S119-.36,119.24.1s-1.15,1.95-1.15,1.95,3.67,6.42,2.07,9.86c-2.53,3-3.56,9.52-3.56,9.52a2.29,2.29,0,0,1,1.84,0c.8.46,8,6.1,9.06,7.23l-1,2c-3.42.29-10.06-6.13-10.69-6.48s-.69-1.14-.57-2.52C114.48,19.94,116,14.09,116.6,12.83Z"/><path class="cls-2" d="M141.06,16.19a9.07,9.07,0,0,0-13.91,0c-3.13,1.94-4.93,5-4.07,7.1.72,1.75,3.07,2.3,5.74,1.57l.25.16c-2.14,2.27-4.18,5.78-4.32,12.42-.2,9.39-.4,13.52.5,16a5.79,5.79,0,0,0,3.33,3.37c-1.63,2.22-2.82,5.13-2,7.81,1.38,4.39,4.6,18.1,5.17,20.1s-1.26,8.06-1.61,9.16c-.18.59.36.89,1.12,1l-1.23,5.81a1.75,1.75,0,0,0,.87,1.9l-.87,4.12a1.75,1.75,0,0,0,.87,1.9l-.87,4.12a1.75,1.75,0,0,0,.87,1.9l-.87,4.12a1.74,1.74,0,0,0,.87,1.9l-.87,4.12a1.76,1.76,0,0,0,.87,1.91l-.87,4.11a1.75,1.75,0,0,0,1.71,2.13h.35v6a.39.39,0,0,0,.72.21l.93-1.44a.38.38,0,0,1,.66,0l.92,1.44a.4.4,0,0,0,.73-.21v-6h.34a1.76,1.76,0,0,0,1.72-2.13l-.87-4.11a1.76,1.76,0,0,0,.87-1.91l-.87-4.12a1.74,1.74,0,0,0,.87-1.9l-.87-4.12a1.75,1.75,0,0,0,.87-1.9l-.87-4.12a1.75,1.75,0,0,0,.87-1.9l-.87-4.12a1.75,1.75,0,0,0,.87-1.9l-1.23-5.81c.75-.15,1.3-.45,1.11-1-.34-1.1-2.18-7.17-1.61-9.16s3.79-15.71,5.18-20.1c.85-2.68-.34-5.59-2-7.81A5.79,5.79,0,0,0,143,53.43c.9-2.47.7-6.6.5-16-.14-6.64-2.19-10.15-4.32-12.42l.24-.16c2.68.73,5,.18,5.74-1.57C146,21.2,144.19,18.13,141.06,16.19Z"/><path class="cls-2" d="M141.19,10.78c-.18-1.12-1.51-4.39-2.51-2.28-.3.64.42,2.09.53,2.88,0-.08,0-.07,0-.11.07,1.14-3.35,3.51-2.42,4.24s4.81-3.15,4.36-4.73C141.17,10.62,141.22,10.87,141.19,10.78Z"/><path class="cls-2" d="M127,10.78c.19-1.12,1.51-4.39,2.51-2.28.31.64-.42,2.09-.52,2.88,0-.08,0-.07,0-.11-.07,1.14,3.34,3.51,2.42,4.24s-4.81-3.15-4.37-4.73C127.05,10.62,127,10.87,127,10.78Z"/><path class="cls-3" d="M268.07,13.86c-4.59-6.3-13.31-9.52-20.19-9.75C241.15,3.89,168.55,26.28,141.1,35a2.15,2.15,0,0,0-1.49,2.38l.7,4.86A2.2,2.2,0,0,0,141.86,44c17.45,5.18,55.26,3,70,1.4C227.18,43.79,272.65,20.17,268.07,13.86Z"/><path class="cls-4" d="M266,11.5c-.28-.27-.56-.54-.86-.8-10.66-1.27-21.2.41-25.82,1.33-3.28.66-14.6,6.46-16.21,7.29l-9.67-6.41-.86.25,14.61,9.69.17-.07c.15-.06,15.11-6.17,18.22-6.17,2.37,0,12.3,3.56,17,5.27l.64-.5c-4.5-1.66-15-5.45-17.59-5.45-3.1,0-16.56,5.43-18.32,6.15l-3.49-2.32c2.43-1.25,12.71-6.46,15.68-7C244.18,11.76,255.14,10,266,11.5Z"/><path class="cls-4" d="M214.27,27.21c-4-1.83-5.92-2.71-6.22-2.79-.92-.22-17,5-22.23,6.76a40.53,40.53,0,0,0-5.77-2.4c-2.3-.46-25.53,6.5-28.31,7.34l-12.08,1.65.1.68,12.1-1.65,0,0c10.37-3.12,26.39-7.66,28-7.33,1.32.27,6.26,2.65,10.23,4.57,2.91,1.4,5.42,2.61,6.46,3,1.42.51,5.15,5.19,8,9.05l.81-.07c-2.73-3.7-6.88-9-8.59-9.63-1-.36-3.63-1.63-6.4-3l-3.72-1.79c8.3-2.74,20.14-6.52,21.14-6.52h0c.28.08,3,1.31,6.11,2.75,6.2,2.84,15.68,7.19,21.49,9.51l.87-.39C230.65,34.72,220.7,30.16,214.27,27.21Z"/><path class="cls-4" d="M237.79,69.72c-1.84-5-11.24-12.62-23.4-15.14C202.72,52.15,150,47.41,140.32,46a1.21,1.21,0,0,0-1.32.8l-1.19,3.39a1.22,1.22,0,0,0,.27,1.25C140.61,54.07,152.59,65.51,177,75,204.76,85.77,240.94,78.2,237.79,69.72Z"/><path class="cls-5" d="M184.16,62.86c-2.7-1.43-18.44-3.15-20-3.32a74.92,74.92,0,0,0-12.2-8.67l-4.45-1.39L139,46.83l-.23.65c2.51.79,5.8,1.82,8.5,2.65,2.28.71,4.08,1.27,4.43,1.39.91.3,14.45,8.85,18.41,15.67a42.74,42.74,0,0,1,2.95,6.21l.87.36a43.4,43.4,0,0,0-3.23-6.91A29.33,29.33,0,0,0,165,60.33c3.8.43,16.55,1.94,18.82,3.13,1.57.84,8.31,9.55,13.13,16.28l.93.09C193,73,186,63.82,184.16,62.86Z"/><path class="cls-5" d="M226.88,64.81a38.54,38.54,0,0,0,11,6.79,3.32,3.32,0,0,0,.13-.7,37.72,37.72,0,0,1-10.66-6.62,17.1,17.1,0,0,0-1.86-1.42c-1.84-1-8-2.49-12.07-3.45l-2.48-.59c-4.1-1.8-12.53-5-18.58-7.21l-3-.34c6.83,2.37,20,7.42,23.07,9,1.4.73,3.49,2.91,5.73,5.76a31.45,31.45,0,0,0-4.71,7.59,57.15,57.15,0,0,0,.75,6.45l.69,0a63,63,0,0,1-.76-6.28,32.37,32.37,0,0,1,4.46-7.16,87.16,87.16,0,0,1,7.53,11.68l.69-.18C223.07,71,217,62.66,213.46,60.13c4,.95,9.93,2.34,11.66,3.33A18.41,18.41,0,0,1,226.88,64.81Z"/><path class="cls-3" d="M.32,13.86c4.59-6.3,13.31-9.52,20.19-9.75C27.24,3.89,99.84,26.28,127.29,35a2.15,2.15,0,0,1,1.49,2.38l-.7,4.86A2.2,2.2,0,0,1,126.53,44c-17.45,5.18-55.26,3-70,1.4C41.21,43.79-4.26,20.17.32,13.86Z"/><path class="cls-4" d="M2.38,11.5c.28-.27.56-.54.86-.8,10.66-1.27,21.2.41,25.82,1.33,3.27.66,14.6,6.46,16.21,7.29l9.67-6.41.86.25L41.19,22.85,41,22.78c-.15-.06-15.11-6.17-18.22-6.17-2.37,0-12.3,3.56-17,5.27l-.64-.5c4.5-1.66,15-5.45,17.59-5.45,3.1,0,16.56,5.43,18.31,6.15l3.5-2.32c-2.43-1.25-12.71-6.46-15.68-7C24.21,11.76,13.25,10,2.38,11.5Z"/><path class="cls-4" d="M54.12,27.21c4-1.83,5.92-2.71,6.22-2.79.92-.22,17,5,22.23,6.76a40.53,40.53,0,0,1,5.77-2.4c2.3-.46,25.53,6.5,28.31,7.34l12.07,1.65-.09.68-12.1-1.65,0,0c-10.37-3.12-26.39-7.66-28-7.33-1.32.27-6.26,2.65-10.23,4.57-2.91,1.4-5.42,2.61-6.46,3-1.42.51-5.15,5.19-8,9.05L63,46c2.73-3.7,6.88-9,8.59-9.63,1-.36,3.63-1.63,6.4-3l3.72-1.79c-8.3-2.74-20.14-6.52-21.14-6.52h0c-.28.08-3,1.31-6.11,2.75C48.2,30.68,38.72,35,32.91,37.35L32,37C37.74,34.72,47.69,30.16,54.12,27.21Z"/><path class="cls-4" d="M30.6,69.72c1.84-5,11.24-12.62,23.4-15.14,11.67-2.43,64.36-7.17,74.07-8.56a1.21,1.21,0,0,1,1.32.8l1.19,3.39a1.23,1.23,0,0,1-.28,1.25C127.78,54.07,115.8,65.51,91.39,75,63.63,85.77,27.45,78.2,30.6,69.72Z"/><path class="cls-5" d="M84.23,62.86c2.7-1.43,18.44-3.15,20-3.32a74.92,74.92,0,0,1,12.2-8.67l4.45-1.39,8.47-2.65.23.65c-2.51.79-5.8,1.82-8.5,2.65-2.28.71-4.08,1.27-4.43,1.39-.91.3-14.45,8.85-18.41,15.67a42.74,42.74,0,0,0-3,6.21l-.87.36a43.4,43.4,0,0,1,3.23-6.91,29.33,29.33,0,0,1,5.68-6.52c-3.8.43-16.55,1.94-18.82,3.13C83,64.3,76.24,73,71.42,79.74l-.93.09C75.37,73,82.4,63.82,84.23,62.86Z"/><path class="cls-5" d="M41.51,64.81a38.54,38.54,0,0,1-11,6.79,3.32,3.32,0,0,1-.13-.7,37.72,37.72,0,0,0,10.66-6.62,17.1,17.1,0,0,1,1.86-1.42c1.84-1,8-2.49,12.07-3.45l2.48-.59c4.1-1.8,12.53-5,18.58-7.21l3-.34c-6.83,2.37-20,7.42-23.07,9-1.4.73-3.49,2.91-5.73,5.76A31.77,31.77,0,0,1,55,73.62a57.15,57.15,0,0,1-.75,6.45l-.69,0a63,63,0,0,0,.76-6.28,32.37,32.37,0,0,0-4.46-7.16A87.16,87.16,0,0,0,42.3,78.26l-.69-.18c3.7-7.09,9.81-15.42,13.32-17.95-4,.95-9.93,2.34-11.66,3.33A17.21,17.21,0,0,0,41.51,64.81Z"/></g></g></svg>