<svg xmlns="http://www.w3.org/2000/svg" viewBox="0 0 541.33 411.92"><defs><style>.cls-1{fill:#424141;}.cls-2{fill:#cc2128;}</style></defs><title>Asset 2</title><g id="Layer_2" data-name="Layer 2"><g id="Layer_1-2" data-name="Layer 1"><rect class="cls-1" y="266" width="541.33" height="3.93"/><rect class="cls-1" y="331.52" width="541.33" height="3.93"/><path class="cls-1" d="M315,347c20-3.41,31.74,13,43.72,25.93,9.62,10.39,21.05,19.62,34.76,23.87,13.06,4,27.7,3.17,39-5,9.28-6.73,14.8-17.54,13.25-29.08-1.39-10.36-8.39-19.38-18.89-21.5-9.57-1.93-20.37,2-24.33,11.4-3.71,8.84,1.26,20.73,12.14,19.8,7.33-.63,11.3-9.65,6.69-15.52-5.54-7.05-18,1.38-10.81,7.76,5.75,5.1,11.32-5.06,4.79-7.59-.71-.27-1.22.92-.52,1.25q-3.45-4.79,3.75-1.82a7.16,7.16,0,0,1,3,5.7,7.71,7.71,0,0,1-5.69,8.3c-9.25,2.41-14.8-7.94-12.44-15.71,3.64-12,18.64-15.32,28.87-10.09,10.5,5.37,14.39,18.72,11.33,29.6-3,10.7-12.41,18.66-22.79,21.89-23.79,7.41-46.64-8.07-62-24.79-11-12-25.17-31-44-24.91a.28.28,0,0,0,.15.54Z"/><path class="cls-1" d="M329,345.44a90.38,90.38,0,0,1,29.13,17.28c5.66,4.9,11.83,10.2,19.61,11,5.95.59,12.75-2,14.92-8,1.66-4.58.16-10.42-4.64-12.34-9.36-3.73-17.78,11.46-8.35,13.4,2.87.59,6.24-2.2,4.63-5.24-1.76-3.32-5.56-1.26-5.66,1.77,0,.72,1,.69,1.11,0q-4.72-3.15-1.11-5.92a3.83,3.83,0,0,1,2.67-2.42c1.89-1,5.41-1.25,7.26.15,5.83,4.44,3.28,12.94-2.5,15.89-9.21,4.72-18.74-2-25.53-7.76-9.48-8-19.2-15-31.35-18.4a.34.34,0,0,0-.19.66Z"/><path class="cls-1" d="M349.76,363.17c2.56,9.93,5.84,20.92-.71,30.16-3.48,4.91-10.09,8.19-16.1,6.24a11,11,0,0,1-7.11-7.28,9.18,9.18,0,0,1,.57-7.07c1.29-3.23,2.43-4,3.43-2.14.25-.61-.71-1-1-.44-4.26,7.22,7.69,11.44,9,3.7.61-3.66-2.92-6.38-6.31-6.19-4.32.23-7.26,4.45-7.55,8.44-.89,12,13.22,15.9,21.72,10.05,11.45-7.88,9.56-24.67,4.44-35.62-.09-.2-.4-.06-.35.15Z"/><path class="cls-1" d="M324.58,351c-11.41-6-26.73-2.37-35.31,6.89-8.81,9.5-10.07,26.49,2.92,33.14,11.14,5.71,25.71-3.05,23.55-16.09-.77-4.62-4.1-9.17-8.93-10-4.24-.76-8.86,1.54-9.72,6a6.51,6.51,0,0,0,8.53,7.6c4.95-1.78,5.28-7.69,2-11.14-.45-.47-1.31.16-.92.71q2.47,3.43-1.66-1.81l4.28,1.22c3.1,1.81,4.91,5.77,5.07,9.22a14.22,14.22,0,0,1-10,14c-11.65,3.55-21.62-7.1-20.48-18.35,2-19.69,24.3-26,40.44-21,.22.07.36-.26.16-.36Z"/><path class="cls-1" d="M318.34,383.86c-3.62,6.47-6.94,12.85-13.27,17.16a17.53,17.53,0,0,1-9.83,3.41c-3.27,0-5.9-2.16-9.08-1.84a1,1,0,0,0-.94.94c.72,8.36,14.06,5.76,18.84,2.93,7.6-4.5,14-13.57,15-22.42,0-.37-.51-.48-.68-.18Z"/><path class="cls-1" d="M358.34,378.72c0,7.63,3.69,14.95,8.33,20.83,4.33,5.5,12,13,19.59,12.33,1.63-.14,3-2.32,1.49-3.6-5.11-4.28-11.84-5.75-17-10.38-5.93-5.38-8.91-12-11.81-19.27a.33.33,0,0,0-.64.09Z"/><path class="cls-1" d="M440.59,368.47c2.35-8.89-4.37-17.49-12.6-20-2.67-.82-3.53,3.61-.53,3.91,8,.8,12.49,8.63,12.34,16a.4.4,0,0,0,.79.11Z"/><path class="cls-1" d="M325.47,351.05c-5.65-7.71-17.28-11-26.46-10-7,.74-21,5.46-21.59,14a1,1,0,0,0,1.28,1c3.25-.8,5.07-3.38,7.74-5.28a31.17,31.17,0,0,1,12.24-5.23c10-1.88,17.39,1.88,25.88,6.5.54.29,1.33-.35.91-.92Z"/><path class="cls-1" d="M226.29,347c-20-3.41-31.74,13-43.72,25.93-9.61,10.39-21,19.62-34.75,23.87-13.07,4-27.71,3.17-39-5C99.52,385,94,374.23,95.55,362.69c1.39-10.36,8.39-19.38,18.89-21.5,9.57-1.93,20.37,2,24.33,11.4,3.71,8.84-1.26,20.73-12.14,19.8-7.33-.63-11.3-9.65-6.69-15.52,5.54-7.05,18,1.38,10.81,7.76-5.75,5.1-11.32-5.06-4.79-7.59.71-.27,1.22.92.52,1.25q3.45-4.79-3.75-1.82a7.12,7.12,0,0,0-3,5.7,7.69,7.69,0,0,0,5.68,8.3c9.25,2.41,14.8-7.94,12.44-15.71-3.64-12-18.64-15.32-28.87-10.09-10.5,5.37-14.38,18.72-11.33,29.6,3,10.7,12.41,18.66,22.79,21.89,23.79,7.41,46.64-8.07,62-24.79,11-12,25.17-31,44-24.91a.28.28,0,0,1-.15.54Z"/><path class="cls-1" d="M212.33,345.44a90.38,90.38,0,0,0-29.13,17.28c-5.66,4.9-11.83,10.2-19.61,11-6,.59-12.75-2-14.92-8-1.66-4.58-.16-10.42,4.64-12.34,9.37-3.73,17.78,11.46,8.35,13.4-2.87.59-6.24-2.2-4.62-5.24,1.75-3.32,5.55-1.26,5.65,1.77,0,.72-1,.69-1.11,0q4.72-3.15,1.11-5.92A3.83,3.83,0,0,0,160,354.9c-1.89-1-5.41-1.25-7.26.15-5.83,4.44-3.27,12.94,2.5,15.89,9.22,4.72,18.74-2,25.53-7.76,9.48-8,19.2-15,31.35-18.4a.34.34,0,0,1,.19.66Z"/><path class="cls-1" d="M191.57,363.17c-2.56,9.93-5.84,20.92.71,30.16,3.48,4.91,10.09,8.19,16.1,6.24a11,11,0,0,0,7.11-7.28,9.18,9.18,0,0,0-.57-7.07c-1.29-3.23-2.43-4-3.43-2.14-.25-.61.71-1,1-.44,4.26,7.22-7.69,11.44-9,3.7-.62-3.66,2.91-6.38,6.3-6.19,4.32.23,7.26,4.45,7.55,8.44.89,12-13.22,15.9-21.72,10.05-11.45-7.88-9.56-24.67-4.44-35.62.09-.2.4-.06.35.15Z"/><path class="cls-1" d="M216.75,351c11.41-6,26.73-2.37,35.31,6.89,8.81,9.5,10.07,26.49-2.92,33.14C238,396.78,223.43,388,225.59,375c.77-4.62,4.1-9.17,8.93-10,4.24-.76,8.86,1.54,9.72,6a6.51,6.51,0,0,1-8.53,7.6c-4.94-1.78-5.28-7.69-2-11.14.45-.47,1.31.16.92.71q-2.47,3.43,1.66-1.81L232,367.51c-3.1,1.81-4.9,5.77-5.07,9.22a14.22,14.22,0,0,0,10,14c11.65,3.55,21.62-7.1,20.49-18.35-2-19.69-24.31-26-40.45-21-.22.07-.36-.26-.16-.36Z"/><path class="cls-1" d="M223,383.86c3.62,6.47,6.94,12.85,13.27,17.16a17.53,17.53,0,0,0,9.83,3.41c3.27,0,5.9-2.16,9.08-1.84a1,1,0,0,1,.94.94c-.72,8.36-14.06,5.76-18.84,2.93-7.6-4.5-14-13.57-15-22.42,0-.37.51-.48.68-.18Z"/><path class="cls-1" d="M183,378.72c0,7.63-3.69,14.95-8.33,20.83-4.33,5.5-12,13-19.59,12.33-1.63-.14-3-2.32-1.49-3.6,5.11-4.28,11.85-5.75,17-10.38,5.93-5.38,8.91-12,11.81-19.27a.33.33,0,0,1,.64.09Z"/><path class="cls-1" d="M100.74,368.47c-2.34-8.89,4.37-17.49,12.6-20,2.67-.82,3.53,3.61.53,3.91-8,.8-12.49,8.63-12.34,16a.4.4,0,0,1-.79.11Z"/><path class="cls-1" d="M215.86,351.05c5.65-7.71,17.28-11,26.46-10,7,.74,21,5.46,21.59,14a1,1,0,0,1-1.28,1c-3.25-.8-5.07-3.38-7.74-5.28a31.19,31.19,0,0,0-12.23-5.23c-10-1.88-17.4,1.88-25.88,6.5-.55.29-1.34-.35-.92-.92Z"/><path class="cls-1" d="M226.29,64.92c-20,3.41-31.74-13-43.72-25.93-9.61-10.39-21-19.62-34.75-23.86-13.07-4.05-27.71-3.18-39,5C99.52,26.88,94,37.7,95.55,49.23c1.39,10.36,8.39,19.38,18.89,21.5,9.57,1.93,20.37-2,24.33-11.4,3.71-8.84-1.26-20.73-12.14-19.79-7.33.62-11.3,9.64-6.69,15.51,5.54,7.05,18-1.38,10.81-7.76-5.75-5.1-11.32,5.06-4.79,7.59.71.27,1.22-.91.52-1.25q3.45,4.78-3.75,1.83a7.16,7.16,0,0,1-3-5.71,7.69,7.69,0,0,1,5.68-8.3c9.25-2.41,14.8,7.94,12.44,15.71-3.64,12-18.64,15.32-28.87,10.09-10.5-5.37-14.38-18.72-11.33-29.6C100.65,27,110,19,120.42,15.76c23.79-7.41,46.64,8.07,62,24.79,11,12,25.17,31,44,24.91a.28.28,0,0,0-.15-.54Z"/><path class="cls-1" d="M212.33,66.48A90.2,90.2,0,0,1,183.2,49.2c-5.66-4.9-11.83-10.2-19.61-11-6-.59-12.75,2-14.92,8-1.66,4.58-.16,10.42,4.64,12.34,9.37,3.73,17.78-11.46,8.35-13.4-2.87-.59-6.24,2.2-4.62,5.24,1.75,3.32,5.55,1.26,5.65-1.77,0-.72-1-.69-1.11,0q4.72,3.15,1.11,5.92A3.83,3.83,0,0,1,160,57c-1.89,1-5.41,1.25-7.26-.15-5.83-4.44-3.27-12.94,2.5-15.89,9.22-4.72,18.74,2,25.53,7.76,9.48,8,19.2,15,31.35,18.4a.34.34,0,0,0,.19-.66Z"/><path class="cls-1" d="M191.57,48.76c-2.56-9.94-5.84-20.92.71-30.17,3.48-4.9,10.09-8.19,16.1-6.24a11,11,0,0,1,7.11,7.28,9.18,9.18,0,0,1-.57,7.07c-1.29,3.23-2.43,3.95-3.43,2.14-.25.61.71,1,1,.44,4.26-7.22-7.69-11.44-9-3.7-.62,3.66,2.91,6.38,6.3,6.19,4.32-.23,7.26-4.45,7.55-8.44.89-12-13.22-15.9-21.72-10C184.21,21.16,186.1,38,191.22,48.9c.09.2.4.06.35-.14Z"/><path class="cls-1" d="M216.75,60.88c11.41,6,26.73,2.37,35.31-6.89,8.81-9.5,10.07-26.48-2.92-33.14-11.14-5.71-25.71,3-23.55,16.09.77,4.62,4.1,9.17,8.93,10,4.24.76,8.86-1.54,9.72-6,1-5-3.55-9.39-8.53-7.59s-5.28,7.68-2,11.13c.45.47,1.31-.16.92-.71q-2.47-3.43,1.66,1.81L232,44.41c-3.1-1.81-4.9-5.77-5.07-9.22a14.23,14.23,0,0,1,10-14c11.65-3.55,21.62,7.1,20.49,18.35-2,19.69-24.31,26-40.45,21-.22-.07-.36.26-.16.36Z"/><path class="cls-1" d="M223,28.06c3.62-6.47,6.94-12.85,13.27-17.16a17.53,17.53,0,0,1,9.83-3.41c3.27,0,5.9,2.17,9.08,1.84a1,1,0,0,0,.94-.94c-.72-8.36-14.06-5.76-18.84-2.93-7.6,4.5-14,13.58-15,22.42,0,.37.51.48.68.18Z"/><path class="cls-1" d="M183,33.21c0-7.64-3.69-15-8.33-20.84-4.33-5.5-12-13-19.59-12.33-1.63.14-3,2.32-1.49,3.6,5.11,4.28,11.85,5.75,17,10.38,5.93,5.38,8.91,12,11.81,19.27a.33.33,0,0,0,.64-.08Z"/><path class="cls-1" d="M100.74,43.45c-2.34,8.89,4.37,17.49,12.6,20,2.67.82,3.53-3.61.53-3.91-8-.8-12.49-8.62-12.34-16a.4.4,0,0,0-.79-.11Z"/><path class="cls-1" d="M215.86,60.87c5.65,7.71,17.28,11,26.46,10,7-.74,21-5.46,21.59-14a1,1,0,0,0-1.28-1c-3.25.8-5.07,3.38-7.74,5.28a31.19,31.19,0,0,1-12.23,5.23c-10,1.88-17.4-1.88-25.88-6.5-.55-.29-1.34.35-.92.92Z"/><path class="cls-1" d="M315,64.92c20,3.41,31.74-13,43.72-25.93,9.62-10.39,21.05-19.62,34.76-23.86,13.06-4.05,27.7-3.18,39,5,9.28,6.73,14.8,17.55,13.25,29.08-1.39,10.36-8.39,19.38-18.89,21.5-9.57,1.93-20.37-2-24.33-11.4-3.71-8.84,1.26-20.73,12.14-19.79,7.33.62,11.3,9.64,6.69,15.51-5.54,7.05-18-1.38-10.81-7.76,5.75-5.1,11.32,5.06,4.79,7.59-.71.27-1.22-.91-.52-1.25q-3.45,4.78,3.75,1.83a7.2,7.2,0,0,0,3-5.71,7.71,7.71,0,0,0-5.69-8.3c-9.25-2.41-14.8,7.94-12.44,15.71,3.64,12,18.64,15.32,28.87,10.09,10.5-5.37,14.39-18.72,11.33-29.6-3-10.7-12.41-18.66-22.79-21.89-23.79-7.41-46.64,8.07-62,24.79-11,12-25.17,31-44,24.91a.28.28,0,0,1,.15-.54Z"/><path class="cls-1" d="M329,66.48A90.2,90.2,0,0,0,358.13,49.2c5.66-4.9,11.83-10.2,19.61-11,5.95-.59,12.75,2,14.92,8,1.66,4.58.16,10.42-4.64,12.34-9.36,3.73-17.78-11.46-8.35-13.4,2.87-.59,6.24,2.2,4.63,5.24-1.76,3.32-5.56,1.26-5.66-1.77,0-.72,1-.69,1.11,0q-4.72,3.15-1.11,5.92A3.83,3.83,0,0,0,381.31,57c1.89,1,5.41,1.25,7.26-.15,5.83-4.44,3.28-12.94-2.5-15.89-9.21-4.72-18.74,2-25.53,7.76-9.48,8-19.2,15-31.35,18.4a.34.34,0,0,1-.19-.66Z"/><path class="cls-1" d="M349.76,48.76c2.56-9.94,5.84-20.92-.71-30.17-3.48-4.9-10.09-8.19-16.1-6.24a11,11,0,0,0-7.11,7.28,9.18,9.18,0,0,0,.57,7.07c1.29,3.23,2.43,3.95,3.43,2.14.25.61-.71,1-1,.44-4.26-7.22,7.69-11.44,9-3.7.61,3.66-2.92,6.38-6.31,6.19-4.32-.23-7.26-4.45-7.55-8.44-.89-12,13.22-15.9,21.72-10,11.45,7.88,9.56,24.67,4.44,35.62-.09.2-.4.06-.35-.14Z"/><path class="cls-1" d="M324.58,60.88c-11.41,6-26.73,2.37-35.31-6.89-8.81-9.5-10.07-26.48,2.92-33.14,11.14-5.71,25.71,3,23.55,16.09-.77,4.62-4.1,9.17-8.93,10-4.24.76-8.86-1.54-9.72-6-1-5,3.55-9.39,8.53-7.59s5.28,7.68,2,11.13c-.45.47-1.31-.16-.92-.71q2.47-3.43-1.66,1.81l4.28-1.22c3.1-1.81,4.91-5.77,5.07-9.22a14.23,14.23,0,0,0-10-14c-11.65-3.55-21.62,7.1-20.48,18.35,2,19.69,24.3,26,40.44,21,.22-.07.36.26.16.36Z"/><path class="cls-1" d="M318.34,28.06c-3.62-6.47-6.94-12.85-13.27-17.16a17.53,17.53,0,0,0-9.83-3.41c-3.27,0-5.9,2.17-9.08,1.84a1,1,0,0,1-.94-.94c.72-8.36,14.06-5.76,18.84-2.93,7.6,4.5,14,13.58,15,22.42,0,.37-.51.48-.68.18Z"/><path class="cls-1" d="M358.34,33.21c0-7.64,3.69-15,8.33-20.84,4.33-5.5,12-13,19.59-12.33,1.63.14,3,2.32,1.49,3.6-5.11,4.28-11.84,5.75-17,10.38-5.93,5.38-8.91,12-11.81,19.27a.33.33,0,0,1-.64-.08Z"/><path class="cls-1" d="M440.59,43.45c2.35,8.89-4.37,17.49-12.6,20-2.67.82-3.53-3.61-.53-3.91,8-.8,12.49-8.62,12.34-16a.4.4,0,0,1,.79-.11Z"/><path class="cls-1" d="M325.47,60.87c-5.65,7.71-17.28,11-26.46,10-7-.74-21-5.46-21.59-14a1,1,0,0,1,1.28-1c3.25.8,5.07,3.38,7.74,5.28a31.17,31.17,0,0,0,12.24,5.23c10,1.88,17.39-1.88,25.88-6.5.54-.29,1.33.35.91.92Z"/><path class="cls-1" d="M119.57,129.27c-16.7,2.84-26.46-10.82-36.44-21.61-8-8.66-17.55-16.36-29-19.9C43.27,84.39,31.07,85.12,21.64,92c-7.73,5.61-12.33,14.63-11,24.24,1.16,8.63,7,16.15,15.74,17.92,8,1.61,17-1.64,20.28-9.5,3.09-7.37-1-17.28-10.12-16.5A8.11,8.11,0,0,0,30.93,121c4.61,5.88,15-1.15,9-6.46-4.79-4.26-9.42,4.21-4,6.32.6.23,1-.76.44-1q2.86,4-3.13,1.52a6,6,0,0,1-2.52-4.76,6.43,6.43,0,0,1,4.74-6.92c7.71-2,12.33,6.63,10.37,13.1-3,10-15.54,12.76-24.06,8.41-8.75-4.48-12-15.61-9.44-24.67S22.68,91,31.33,88.29C51.16,82.11,70.2,95,83,109c9.15,10,21,25.83,36.69,20.76a.23.23,0,0,0-.12-.45Z"/><path class="cls-1" d="M107.93,130.57a75.56,75.56,0,0,1-24.28-14.4c-4.72-4.09-9.86-8.5-16.34-9.14-5-.49-10.63,1.7-12.44,6.7-1.38,3.81-.13,8.68,3.87,10.27,7.81,3.12,14.82-9.55,7-11.16-2.4-.49-5.2,1.83-3.86,4.37,1.47,2.76,4.64,1.05,4.72-1.48,0-.6-.87-.58-.93,0q3.95,2.63.93,4.94a3.23,3.23,0,0,1-2.23,2c-1.57.83-4.5,1-6-.12-4.87-3.7-2.74-10.79,2.07-13.25,7.69-3.93,15.62,1.68,21.29,6.47,7.9,6.69,16,12.53,26.13,15.34.36.1.49-.43.15-.55Z"/><path class="cls-1" d="M90.63,115.79c-2.14-8.28-4.87-17.43.59-25.14,2.9-4.09,8.41-6.83,13.42-5.2a9.16,9.16,0,0,1,5.93,6.07,7.66,7.66,0,0,1-.48,5.89c-1.07,2.7-2,3.29-2.86,1.79-.21.5.6.81.86.36,3.55-6-6.41-9.53-7.5-3.08-.51,3,2.44,5.32,5.26,5.16,3.59-.2,6.05-3.71,6.29-7,.74-10-11-13.25-18.11-8.37-9.54,6.56-8,20.56-3.69,29.69.07.16.33,0,.29-.13Z"/><path class="cls-1" d="M111.62,125.9c9.5,5,22.27,2,29.43-5.74,7.34-7.92,8.39-22.08-2.44-27.63C129.33,87.77,117.18,95.08,119,106c.64,3.85,3.42,7.64,7.44,8.36,3.54.64,7.39-1.28,8.11-5a5.42,5.42,0,0,0-7.11-6.33c-4.12,1.48-4.4,6.41-1.7,9.28.37.4,1.09-.13.77-.59q-2.07-2.87,1.38,1.51l-3.57-1c-2.58-1.51-4.09-4.8-4.22-7.69a11.85,11.85,0,0,1,8.3-11.69c9.71-3,18,5.92,17.08,15.3-1.66,16.41-20.26,21.69-33.71,17.51a.16.16,0,0,0-.13.3Z"/><path class="cls-1" d="M116.81,98.55c3-5.4,5.79-10.71,11.06-14.31a14.68,14.68,0,0,1,8.2-2.84c2.73,0,4.92,1.81,7.57,1.54a.8.8,0,0,0,.78-.79c-.6-7-11.72-4.8-15.7-2.44C122.39,83.46,117,91,116.25,98.39c0,.31.43.4.56.16Z"/><path class="cls-1" d="M83.48,102.83c0-6.36-3.08-12.46-6.94-17.36-3.61-4.58-10-10.82-16.33-10.28-1.36.12-2.52,1.93-1.24,3,4.26,3.57,9.87,4.79,14.13,8.65,4.94,4.49,7.43,10,9.85,16.07a.27.27,0,0,0,.53-.08Z"/><path class="cls-1" d="M14.92,111.37C13,118.78,18.57,126,25.43,128.05c2.22.68,2.94-3,.44-3.26-6.64-.67-10.42-7.19-10.29-13.33a.34.34,0,0,0-.66-.09Z"/><path class="cls-1" d="M110.87,125.89c4.71,6.43,14.41,9.17,22.06,8.36,5.85-.62,17.53-4.55,18-11.65a.86.86,0,0,0-1.07-.82c-2.7.67-4.22,2.82-6.44,4.4a26.07,26.07,0,0,1-10.2,4.36c-8.37,1.57-14.5-1.57-21.57-5.41-.46-.25-1.12.28-.77.76Z"/><path class="cls-1" d="M421.76,129.27c16.7,2.84,26.46-10.82,36.44-21.61,8-8.66,17.55-16.36,29-19.9,10.89-3.37,23.09-2.64,32.52,4.19,7.73,5.61,12.34,14.63,11,24.24-1.16,8.63-7,16.15-15.74,17.92-8,1.61-17-1.64-20.28-9.5-3.09-7.37,1.05-17.28,10.12-16.5A8.11,8.11,0,0,1,510.4,121c-4.61,5.88-15-1.15-9-6.46,4.79-4.26,9.43,4.21,4,6.32-.6.23-1-.76-.44-1q-2.86,4,3.13,1.52a6,6,0,0,0,2.52-4.76,6.43,6.43,0,0,0-4.74-6.92c-7.71-2-12.33,6.63-10.36,13.1,3,10,15.53,12.76,24,8.41,8.75-4.48,12-15.61,9.44-24.67S518.66,91,510,88.29C490.17,82.11,471.13,95,458.34,109c-9.16,10-21,25.83-36.7,20.76a.23.23,0,0,1,.12-.45Z"/><path class="cls-1" d="M433.4,130.57a75.56,75.56,0,0,0,24.28-14.4c4.72-4.09,9.86-8.5,16.34-9.14,5-.49,10.63,1.7,12.44,6.7,1.38,3.81.13,8.68-3.87,10.27-7.8,3.12-14.82-9.55-7-11.16,2.4-.49,5.2,1.83,3.86,4.37-1.47,2.76-4.63,1.05-4.72-1.48,0-.6.87-.58.93,0q-3.94,2.63-.93,4.94a3.23,3.23,0,0,0,2.23,2c1.57.83,4.51,1,6.05-.12,4.86-3.7,2.73-10.79-2.08-13.25-7.69-3.93-15.62,1.68-21.29,6.47-7.9,6.69-16,12.53-26.13,15.34-.36.1-.49-.43-.15-.55Z"/><path class="cls-1" d="M450.7,115.79c2.14-8.28,4.87-17.43-.59-25.14-2.9-4.09-8.41-6.83-13.42-5.2a9.16,9.16,0,0,0-5.93,6.07,7.66,7.66,0,0,0,.48,5.89c1.07,2.7,2,3.29,2.86,1.79.21.5-.6.81-.86.36-3.55-6,6.41-9.53,7.5-3.08.51,3-2.43,5.32-5.26,5.16-3.59-.2-6-3.71-6.29-7-.74-10,11-13.25,18.11-8.37,9.54,6.56,8,20.56,3.69,29.69-.07.16-.33,0-.29-.13Z"/><path class="cls-1" d="M429.71,125.9c-9.5,5-22.27,2-29.43-5.74-7.34-7.92-8.39-22.08,2.44-27.63,9.28-4.76,21.43,2.55,19.63,13.42-.64,3.85-3.42,7.64-7.44,8.36-3.54.64-7.39-1.28-8.11-5a5.42,5.42,0,0,1,7.11-6.33c4.12,1.48,4.4,6.41,1.7,9.28-.37.4-1.09-.13-.76-.59q2.06-2.87-1.39,1.51l3.57-1c2.58-1.51,4.09-4.8,4.23-7.69A11.87,11.87,0,0,0,413,92.79c-9.71-3-18,5.92-17.08,15.3,1.66,16.41,20.26,21.69,33.71,17.51a.16.16,0,0,1,.13.3Z"/><path class="cls-1" d="M424.52,98.55c-3-5.4-5.79-10.71-11.06-14.31a14.68,14.68,0,0,0-8.2-2.84c-2.73,0-4.92,1.81-7.57,1.54a.8.8,0,0,1-.78-.79c.6-7,11.72-4.8,15.7-2.44,6.33,3.75,11.7,11.31,12.47,18.68,0,.31-.43.4-.56.16Z"/><path class="cls-1" d="M457.85,102.83c0-6.36,3.08-12.46,6.94-17.36,3.61-4.58,10-10.82,16.33-10.28,1.36.12,2.52,1.93,1.24,3-4.26,3.57-9.87,4.79-14.13,8.65-4.94,4.49-7.43,10-9.84,16.07-.11.26-.54.25-.54-.08Z"/><path class="cls-1" d="M526.41,111.37c2,7.41-3.64,14.58-10.51,16.68-2.22.68-2.94-3-.44-3.26,6.64-.67,10.42-7.19,10.29-13.33a.34.34,0,0,1,.66-.09Z"/><path class="cls-1" d="M430.46,125.89c-4.71,6.43-14.41,9.17-22,8.36-5.86-.62-17.54-4.55-18-11.65a.86.86,0,0,1,1.07-.82c2.7.67,4.22,2.82,6.44,4.4a26.07,26.07,0,0,0,10.2,4.36c8.37,1.57,14.5-1.57,21.57-5.41.46-.25,1.12.28.77.76Z"/><path class="cls-1" d="M185.6,134.27v-5l4.07-.45c.9-.13,1-.32,1-1.29V113.88H173v13.55c0,1,.07,1.16,1,1.29l4.33.51v5H157.93v-5l4.06-.45c.9-.13,1-.32,1-1.29v-33c0-1-.13-1.22-1-1.29l-4.06-.45V87.56h20.45v5.16l-4.33.52c-1,.12-1,.25-1,1.22v12.19H190.7V94.46c0-1-.13-1.22-1-1.29l-4.07-.45V87.56H206v5.16l-4.32.52c-1,.12-1,.25-1,1.22v33c0,1,.07,1.16,1,1.29l4.32.51v5Z"/><path class="cls-1" d="M236.63,134.27v-5l5.29-.58-2.32-6.71h-16l-2.26,6.71,5.1.58v5h-18v-5l2.84-.71a1.91,1.91,0,0,0,1.61-1.22L227,87.56h11.42l14.06,39.87c.26.77.78.9,1.55,1.09l3,.71v5Zm-4.71-36.84h-.38L225.6,115h12.07Z"/><path class="cls-1" d="M259.66,134.27v-5.1l4.07-.45c.9-.13,1-.32,1-1.29v-33c0-1-.13-1.22-1-1.29l-4.07-.45V87.56h21.88c11.93,0,15.54,6.32,15.54,13.74,0,11.23-6.77,15.74-17.67,15.74H274.7v10.32c0,1,.06,1.16,1,1.29l9.22.52v5.1Zm18.26-24.13c4.26,0,9-1,9-8.26,0-6.19-3.81-7.29-8.39-7.29h-3.8v15.55Z"/><path class="cls-1" d="M301.34,134.27v-5.1l4.07-.45c.9-.13,1-.32,1-1.29v-33c0-1-.13-1.22-1-1.29l-4.07-.45V87.56h21.87c11.94,0,15.55,6.32,15.55,13.74,0,11.23-6.77,15.74-17.68,15.74h-4.71v10.32c0,1,.07,1.16,1,1.29l9.22.52v5.1Zm18.26-24.13c4.26,0,9-1,9-8.26,0-6.19-3.81-7.29-8.39-7.29h-3.81v15.55Z"/><path class="cls-1" d="M350,134.27v-5.1l6.45-.45c.9-.07,1-.32,1-1.29V116.85L344.63,94.4a2.31,2.31,0,0,0-1.55-1.1l-2.9-.71.65-5h19.35v5l-5,.58L363,108.4h.52l7.81-15.23-5-.58.64-5H383.4v5l-2.71.71a2.25,2.25,0,0,0-1.61,1.23l-11.67,22.19v10.71c0,.9.06,1.16,1,1.22l6.84.52v5.1Z"/><path class="cls-2" d="M56.29,244.41a26.88,26.88,0,0,0,9.27-1.65A22.69,22.69,0,0,1,50.45,248H26.84V159.1l3.56-3.56v88.87H56.29ZM80,216.48c0,14.22-8.37,25.39-23.74,25.39H32.81V153H53.37c14.73,0,23.11,8.26,23.11,22.6,0,7.49-3.81,15.62-10,18.28C74.58,197.44,80,204.17,80,216.48ZM48.68,186.77h.76c11.17,0,13.07-2.16,13.07-10.53,0-6.48-2.15-10.41-8-10.41H48.68Zm16.25,29.71c0-9.65-2.92-16.25-13.08-16.25H48.68v28.82H54C60.36,229.05,64.93,223.59,64.93,216.48Zm-8.38-34.4c0-5.46-1.65-9.14-5.59-10v-3.81h3.56c4.44,0,5.71,2.79,5.71,7.74,0,4.32-.13,7-3.68,7.87Zm6,34.53c0,3.81-1.39,7-3.8,8.76a20.27,20.27,0,0,0,.25-2.92c0-7.62-1.9-13.46-8-15.36v-4.45h.89C59.47,202.64,62.51,206.7,62.51,216.61Z"/><path class="cls-2" d="M96.67,244.28H109V248H93.11V159.1h3.56ZM114.82,153v88.87H99V153Z"/><path class="cls-2" d="M134.37,244.28h12.32V248H130.82V159.1h3.55Zm23.24-38.08c-2.29,0-4.32-.13-5-.13v35.8H136.79V153h26.53c15.23,0,22.47,11.18,22.47,25.39,0,13.21-5.71,21.71-13.33,25.52l16.76,38H172.71Zm0-13.59c10.15,0,13.07-1.14,13.07-14.22,0-7.11-1.65-12.56-7.87-12.56H152.65v26.78Zm10.66-14.09c0,7.75-.76,10.41-3.81,11.3a31.7,31.7,0,0,0,.26-5.33c0-7.11-1.53-12.7-7.88-12.7h-1.9v-3.68h7.87C165.6,168.11,168.27,169.51,168.27,178.52Zm13.46,65.89,1.52,3.55H166.87L154.94,220V208.61h1.14l15.11,35.8Z"/><path class="cls-2" d="M215.12,244.28h12.19v3.56H211.44V171.67H195.19V159h3.55v9.14h16.38ZM249.65,153v12.7H233.27v76.17H217.41V165.7H201.16V153Zm-14,15.11h8v3.56h-8Z"/><path class="cls-2" d="M264.13,244.41h12.31V248H260.57V159.1h3.56ZM314.91,153v88.87H299V200.23H282.28v41.64H266.41V153h15.87v34.53H299V153Zm-18.28,91.41h12.31V248H293.07V206.2h-8.38v-3.56h11.94Zm0-59.16h-3.56V159.1h3.56Z"/><path class="cls-2" d="M365.44,244.28a21.62,21.62,0,0,0,6.35-1A18.55,18.55,0,0,1,359.47,248H330.91V159.1h3.55v85.18h31Zm19.68-65.89v38.09c0,13.58-6,25.39-19.68,25.39H336.87V153h28.57A19,19,0,0,1,384,167.86,47.33,47.33,0,0,1,385.12,178.39Zm-15,0c0-7.11-1.53-12.56-8-12.56h-9.4v63.22h9.4c6.47,0,8-5.46,8-12.57Zm-2.42.13v38.09c0,7.11-1.65,9.39-3.8,10.15.12-1.39.25-2.79.25-4.31v-38c0-7.24-1.52-12.7-7.87-12.7H355v-3.68h7.11C365.18,168.11,367.72,169.51,367.72,178.52Z"/><path class="cls-2" d="M412.8,244.28l-3.56,3.56H394.39L412.54,159l2.92-2.79-18.15,88.1Zm20.82-23.1H418.25l-3,20.69h-15L418.51,153h15.87l18.28,88.87H436.79Zm16.63,23.1-3.56,3.56H430.82l-3-20.57h-8l.51-3.55h11.42l2.92,20.56Zm-19.17-35.8-4.83-31.86h-.38l-4.95,31.86ZM426,191.09l2.28,15.23h-4.44l-.13-.88Z"/><path class="cls-2" d="M475.26,244.41h11.81V248H471.7V213.43L453.3,159.1h5.45l16.51,48.75ZM511.57,153l-18.66,54.34v34.53H477.67V207.34L459.14,153h15.61l10.79,42.79L496,153Zm-26,33.52-1.14-4.19L490,159.1h2.15Z"/><path class="cls-1" d="M29.41,320.22v-4.17l3.44-.37c.76-.11.87-.27.87-1.07V287.17c0-.8-.11-1-.87-1.07l-3.44-.37V281.5H58.24v10.81l-6-.27L51.47,288c-.11-.53-.33-.69-.93-.69H42.19v10.48H54.75v5.94H42.19v10.8c0,.86.05,1,.87,1.07l8,.43v4.22Z"/><path class="cls-1" d="M88.28,320.22,83.37,306.8c-.66-1.82-1.37-2.41-3.23-2.41H77.58v10.06c0,.85,0,1,.87,1.07l3.82.42v4.28H64.85v-4.28l3.44-.37c.77-.05.88-.27.88-1.07V287.17c0-.8-.11-1-.88-1.07l-3.44-.37V281.5H83.47c9.83,0,12.73,5.14,12.73,10.7s-3,8.45-7.21,10.27c1.58.75,2.29,2,3.17,4.28l3,7.64a1.71,1.71,0,0,0,1.64,1l3.39.53v4.28Zm-8.19-21.39c3.93,0,7.43-.91,7.43-6.15,0-4.12-2.35-5.35-7.21-5.35H77.58v11.5Z"/><path class="cls-1" d="M103.19,301c0-11.45,6.56-20.16,19.55-20.16s18.52,8.71,18.52,19.46c0,12.57-6.28,20.59-19.28,20.59C108.76,320.86,103.19,312.57,103.19,301Zm29.38-.21c0-9.26-3.77-13.22-9.94-13.22s-10.7,4.07-10.7,13.27c0,9.63,4.1,13.48,10.38,13.48C128.42,314.29,132.57,310.6,132.57,300.76Z"/><path class="cls-1" d="M178.12,320.22v-4.17l4.48-.37c.76-.11.87-.32.87-1.07V294.28h-.22l-7.81,18.24h-8.9l-7.7-18.29h-.27v20.32c0,.86.05,1,.87,1.07l4.7.43v4.17h-16.6v-4.17l3.44-.37c.76-.11.87-.27.87-1.07V287.17c0-.8-.11-1-.87-1.07l-3.44-.37V281.5h14.63l9.51,24.23h.22l10-24.23h14.2v4.17l-3.66.43c-.82.11-.87.21-.87,1v27.49c0,.69.16.91.87,1l3.66.43v4.17Z"/><path class="cls-1" d="M238.09,320.22v-4.17l4.48-.48-2-5.56H227.06l-1.91,5.56,4.31.48v4.17H214.22v-4.17l2.41-.59c.65-.16,1.14-.37,1.36-1l12-32.95h9.67l11.9,33.05c.22.65.66.75,1.31.91l2.52.59v4.17Zm-4-30.54h-.33l-5,14.55H239Z"/><path class="cls-1" d="M260.1,320.22V316l3.44-.38c.76-.1.87-.26.87-1.07V287.17c0-.8-.11-1-.87-1.07l-3.44-.37V281.5h18.18v4.23l-4.53.42c-.82.06-.87.27-.87,1V314.5h9.72c.6,0,.76-.05.87-.59l.88-5.35h6v11.66Z"/><path class="cls-1" d="M296.69,320.22V316l3.44-.38c.77-.1.87-.26.87-1.07V287.17c0-.8-.1-1-.87-1.07l-3.44-.37V281.5h18.19v4.23l-4.54.42c-.82.06-.87.27-.87,1V314.5h9.72c.6,0,.76-.05.87-.59l.88-5.35h6v11.66Z"/><path class="cls-1" d="M346.44,301c0-11.45,6.56-20.16,19.55-20.16s18.52,8.71,18.52,19.46c0,12.57-6.28,20.59-19.28,20.59C352,320.86,346.44,312.57,346.44,301Zm29.38-.21c0-9.26-3.76-13.22-9.93-13.22s-10.71,4.07-10.71,13.27c0,9.63,4.1,13.48,10.38,13.48C371.67,314.29,375.82,310.6,375.82,300.76Z"/><path class="cls-1" d="M390.79,320.22v-4.17l3.44-.37c.76-.11.87-.27.87-1.07V287.17c0-.8-.11-1-.87-1.07l-3.44-.37V281.5h28.83v10.81l-6-.27-.77-4.07c-.11-.53-.33-.69-.93-.69h-8.35v10.48h12.56v5.94H403.57v10.8c0,.86.05,1,.87,1.07l8,.43v4.22Z"/><path class="cls-1" d="M467.36,287.17c0-.8-.11-1-.88-1.07l-3.44-.37V281.5h16.17v4.23l-3.66.42c-.82.11-.87.22-.87,1v19.2c0,10.16-6,14.49-15.57,14.49-10.87,0-15.51-4.7-15.51-14.7v-19c0-.8-.11-1-.87-1.07l-3.39-.37V281.5H456.6v4.23l-3.66.42c-.82.11-.87.22-.87,1v17.49c0,6.15,1.42,9.47,7.37,9.47s7.92-2.52,7.92-9.26Z"/><path class="cls-1" d="M504.5,292.84l-.66-4.33c-.11-.64-.27-.86-.65-1a13.23,13.23,0,0,0-4-.59c-4.1,0-6.12,1.82-6.12,4.55,0,3.53,3.72,4.49,7.87,5.72,5.18,1.55,11,3.48,11,11.5,0,8.77-7,12.19-15.34,12.19a36.84,36.84,0,0,1-12.51-2.19V308.24h6.12l1.09,5.08c.11.65.22.81.93,1a20.09,20.09,0,0,0,4.59.58c4.42,0,6.88-1.71,6.88-5,0-3.42-3.12-4.49-6.78-5.51-5.4-1.5-12.06-2.94-12.06-11.55,0-8.24,6.33-12,14.63-12a30.22,30.22,0,0,1,11.2,2.14v10.42Z"/></g></g></svg>